<svg width="331" height="397" viewBox="0 0 331 397" fill="none" xmlns="http://www.w3.org/2000/svg">
<path opacity="0.64" d="M165.061 397C256.221 397 330.121 382.132 330.121 363.791C330.121 345.451 256.221 330.583 165.061 330.583C73.9001 330.583 0 345.451 0 363.791C0 382.132 73.9001 397 165.061 397Z" fill="#F1E4FF"/>
<path d="M85.9354 358.455C88.2522 350.943 95.3433 346.941 106.858 343.571C114.159 341.465 123.427 340.482 137.96 337.533C145.051 336.129 150.036 333.321 150.036 333.321V341.395C150.036 341.395 101.943 350.873 94.4306 363.3C90.7798 369.408 91.9031 384.362 109.104 385.907C103.839 386.679 95.2029 385.345 90.5691 380.641C84.812 374.814 83.2674 367.021 85.9354 358.455Z" fill="#282323" stroke="black" stroke-width="4" stroke-miterlimit="10" stroke-linecap="round" stroke-linejoin="round"/>
<path d="M150.036 341.395C150.036 341.395 121.25 346.731 105.875 353.33C92.3946 359.158 92.8158 365.195 92.4648 371.374C92.2541 374.954 94.7817 383.801 105.032 385.345C117.248 387.171 131.641 385.205 150.036 373.48C150.036 344.765 150.036 341.395 150.036 341.395Z" fill="#442C2A"/>
<path opacity="0.37" d="M92.4648 371.374C92.7456 366.389 92.535 361.474 99.5558 356.7C99.275 358.455 99.2048 360.14 99.1346 361.896C98.924 365.476 107.56 360.843 117.81 362.317C128.482 363.932 134.801 376.148 150.036 367.934C150.036 369.689 150.036 371.514 150.036 373.41C131.641 385.135 117.248 387.03 105.032 385.275C94.7817 383.801 92.2541 374.884 92.4648 371.374Z" fill="#442C2A"/>
<path d="M150.036 341.395C150.036 341.395 121.25 346.731 105.875 353.33C92.3946 359.158 92.8158 365.195 92.4648 371.374C92.2541 374.954 94.7817 383.801 105.032 385.345C117.248 387.171 131.641 385.205 150.036 373.48C150.036 344.765 150.036 341.395 150.036 341.395Z" stroke="black" stroke-width="4" stroke-miterlimit="10" stroke-linecap="round" stroke-linejoin="round"/>
<path d="M123.357 357.894C121.04 359.157 121.601 371.444 127.218 373.129" stroke="black" stroke-width="4" stroke-miterlimit="10" stroke-linecap="round" stroke-linejoin="round"/>
<path d="M132.133 356.981C129.745 360.351 131.43 368.285 135.713 370.251" stroke="black" stroke-width="4" stroke-miterlimit="10" stroke-linecap="round" stroke-linejoin="round"/>
<path d="M140.207 354.173C137.82 357.543 139.505 365.476 143.787 367.442" stroke="black" stroke-width="4" stroke-miterlimit="10" stroke-linecap="round" stroke-linejoin="round"/>
<path d="M223.053 317.805C207.888 328.336 186.334 334.374 163.797 334.374C141.33 334.374 119.706 328.336 104.541 317.805C97.5901 312.96 85.9354 302.85 85.9354 289.37C85.9354 275.89 97.5901 265.78 104.541 260.936C119.706 250.404 141.26 244.366 163.797 244.366C186.264 244.366 207.888 250.404 223.053 260.936C230.004 265.78 241.658 275.89 241.658 289.37C241.658 302.85 230.004 312.96 223.053 317.805Z" fill="#151E28"/>
<path d="M292.489 300.603C292.208 302.008 291.928 303.342 291.506 304.746C280.554 344.694 227.757 375.025 164.218 375.025C100.539 375.025 47.6015 344.554 36.8596 304.465C36.5788 303.342 36.298 302.218 36.0873 301.095C35.8065 298.989 35.8767 296.882 36.2979 294.776C38.8957 282.981 53.2182 276.171 68.3131 279.541C78.2125 281.717 85.9355 287.825 89.3757 295.057C89.7267 296.602 90.2884 298.146 90.9203 299.621C94.5711 308.046 101.873 314.364 106.787 317.875C121.461 328.406 142.453 334.444 164.218 334.444C186.053 334.444 206.975 328.406 221.649 317.875C226.634 314.294 234.005 307.905 237.586 299.48C238.148 298.146 238.639 296.672 238.99 295.268C242.36 287.966 250.153 281.858 260.123 279.611C275.218 276.241 289.541 283.121 292.138 294.846C292.63 296.672 292.7 298.638 292.489 300.603Z" fill="#2A3749"/>
<path opacity="0.67" d="M292.138 294.706C292.068 294.355 291.998 294.074 291.857 293.723C291.647 294.846 291.366 296.04 291.015 297.163C280.203 337.112 227.336 367.442 163.867 367.442C100.188 367.442 47.2504 336.972 36.5085 296.883C36.3681 296.461 36.2979 296.04 36.1574 295.549C35.8766 297.374 35.8064 299.199 36.0872 300.955C36.2979 302.078 36.5787 303.201 36.8595 304.325C47.6014 344.414 100.539 374.884 164.218 374.884C227.757 374.884 280.554 344.554 291.506 304.605C291.857 303.272 292.208 301.867 292.489 300.463C292.7 298.638 292.63 296.672 292.138 294.706Z" fill="#151E28"/>
<path d="M292.489 300.603C292.208 302.008 291.928 303.342 291.506 304.746C280.554 344.694 227.757 375.025 164.218 375.025C100.539 375.025 47.6015 344.554 36.8596 304.465C36.5788 303.342 36.298 302.218 36.0873 301.095C35.8065 298.989 35.8767 296.882 36.2979 294.776C38.8957 282.981 53.2182 276.171 68.3131 279.541C78.2125 281.717 85.9355 287.825 89.3757 295.057C89.7267 296.602 90.2884 298.146 90.9203 299.621C94.5711 308.046 101.873 314.364 106.787 317.875C121.461 328.406 142.453 334.444 164.218 334.444C186.053 334.444 206.975 328.406 221.649 317.875C226.634 314.294 234.005 307.905 237.586 299.48C238.148 298.146 238.639 296.672 238.99 295.268C242.36 287.966 250.153 281.858 260.123 279.611C275.218 276.241 289.541 283.121 292.138 294.846C292.63 296.672 292.7 298.638 292.489 300.603Z" stroke="black" stroke-width="4" stroke-miterlimit="10" stroke-linecap="round" stroke-linejoin="round"/>
<path d="M165.06 312.96C199.997 312.96 228.318 303.342 228.318 291.477C228.318 279.611 199.997 269.993 165.06 269.993C130.124 269.993 101.802 279.611 101.802 291.477C101.802 303.342 130.124 312.96 165.06 312.96Z" fill="#9B2121"/>
<path d="M165.06 312.96C199.997 312.96 228.318 303.342 228.318 291.477C228.318 279.611 199.997 269.993 165.06 269.993C130.124 269.993 101.802 279.611 101.802 291.477C101.802 303.342 130.124 312.96 165.06 312.96Z" stroke="black" stroke-width="4" stroke-miterlimit="10" stroke-linecap="round" stroke-linejoin="round"/>
<path d="M237.095 244.577H91.3415C80.1783 244.577 71.5427 234.818 72.9468 223.725L79.406 172.122C81.2315 157.378 93.7286 146.355 108.613 146.355H219.964C234.778 146.355 247.275 157.378 249.171 172.122L255.63 223.725C256.894 234.818 248.258 244.577 237.095 244.577Z" fill="#F1534D"/>
<path d="M237.095 244.577H91.3415C80.1783 244.577 71.5427 234.818 72.9468 223.725L79.406 172.122C81.2315 157.378 93.7286 146.355 108.613 146.355H219.964C234.778 146.355 247.275 157.378 249.171 172.122L255.63 223.725C256.894 234.818 248.258 244.577 237.095 244.577Z" stroke="black" stroke-width="4" stroke-miterlimit="10" stroke-linecap="round" stroke-linejoin="round"/>
<path d="M107.138 189.955L105.734 207.577" stroke="black" stroke-width="4" stroke-miterlimit="10" stroke-linecap="round" stroke-linejoin="round"/>
<path d="M222.351 189.955L223.755 207.577" stroke="black" stroke-width="4" stroke-miterlimit="10" stroke-linecap="round" stroke-linejoin="round"/>
<path d="M237.095 244.577H91.3414C80.1782 244.577 71.5425 234.818 72.9467 223.725L79.4059 172.122C81.2313 157.378 93.7285 146.355 108.613 146.355H219.964C234.778 146.355 247.275 157.378 249.17 172.122L255.63 223.725C256.893 234.818 248.258 244.577 237.095 244.577Z" fill="#F1534D"/>
<g opacity="0.24">
<path opacity="0.24" d="M79.3358 177.598C81.1612 162.854 93.6583 151.831 108.543 151.831H219.893C234.707 151.831 247.205 162.854 249.1 177.598L255.489 228.78C255.7 227.165 255.77 225.48 255.559 223.725L249.1 172.122C247.275 157.378 234.778 146.355 219.893 146.355H108.543C93.7286 146.355 81.2314 157.378 79.3358 172.122L72.8766 223.725C72.6659 225.41 72.666 227.095 72.9468 228.78L79.3358 177.598Z" fill="#9B2121"/>
<path opacity="0.24" d="M115.002 151.831C115.002 151.831 123.637 153.376 124.339 158.15C124.901 162.012 124.831 164.539 126.305 166.084C127.78 167.628 131.22 170.788 138.171 170.788C134.309 166.926 134.239 153.376 133.186 153.376C132.203 153.376 129.675 146.636 129.675 146.636L126.305 145.091C126.376 145.091 113.949 146.636 115.002 151.831Z" fill="#9B2121"/>
<path opacity="0.24" d="M207.256 151.831C207.256 151.831 198.62 153.376 197.918 158.15C197.357 162.012 197.427 164.539 195.952 166.084C194.478 167.558 191.038 170.788 184.087 170.788C187.949 166.926 188.019 153.376 189.072 153.376C190.055 153.376 192.582 146.636 192.582 146.636L195.952 145.091C195.882 145.091 208.309 146.636 207.256 151.831Z" fill="#9B2121"/>
</g>
<path d="M237.095 244.577H91.3414C80.1782 244.577 71.5425 234.818 72.9467 223.725L79.4059 172.122C81.2313 157.378 93.7285 146.355 108.613 146.355H219.964C234.778 146.355 247.275 157.378 249.17 172.122L255.63 223.725C256.893 234.818 248.258 244.577 237.095 244.577Z" stroke="black" stroke-width="4" stroke-miterlimit="10" stroke-linecap="round" stroke-linejoin="round"/>
<path d="M107.138 189.955L105.734 207.577" stroke="black" stroke-width="4" stroke-miterlimit="10" stroke-linecap="round" stroke-linejoin="round"/>
<path d="M222.351 189.955L223.755 207.577" stroke="black" stroke-width="4" stroke-miterlimit="10" stroke-linecap="round" stroke-linejoin="round"/>
<path d="M145.472 117.008L122.374 115.814L111.561 117.008C111.561 117.008 104.33 122.414 104.33 123.888C104.33 125.363 105.032 137.368 105.032 137.368C105.032 137.368 122.093 139.685 123.918 141.44C125.744 143.196 136.556 153.306 136.556 153.306L147.017 149.234L152.493 134.63L145.472 117.008Z" fill="#9B2121"/>
<path d="M141.4 108.092H114.721C103.979 108.092 95.203 116.798 95.203 127.61C95.203 138.352 103.909 147.128 114.721 147.128H118.231C123.918 147.128 128.482 151.691 128.482 157.378V158.431C128.482 165.242 134.028 170.788 140.839 170.788V158.151C140.979 158.151 141.119 158.291 141.119 158.431V157.378C141.119 144.741 130.869 134.49 118.231 134.49H114.721C110.93 134.49 107.841 131.401 107.841 127.61C107.841 123.819 110.93 120.729 114.721 120.729H141.4V108.092Z" fill="#F1534D"/>
<path d="M139.786 149.444C136.556 140.738 128.131 134.42 118.302 134.42H114.792C111 134.42 107.911 131.331 107.911 127.539C107.911 123.748 111 120.659 114.792 120.659H141.471V108.021H114.792C104.05 108.021 95.2736 116.727 95.2736 127.539C95.2736 138.281 103.979 147.057 114.792 147.057H118.302C123.989 147.057 128.552 151.621 128.552 157.308V158.361C128.552 165.171 134.099 170.718 140.909 170.718" stroke="black" stroke-width="4" stroke-miterlimit="10" stroke-linecap="round" stroke-linejoin="round"/>
<path d="M176.013 117.008L199.112 115.814L209.924 117.008C209.924 117.008 217.155 122.414 217.155 123.888C217.155 125.363 216.453 137.368 216.453 137.368C216.453 137.368 199.393 139.685 197.567 141.44C195.742 143.266 184.93 153.306 184.93 153.306L174.468 149.234L168.992 134.63L176.013 117.008Z" fill="#9B2121"/>
<path d="M180.085 108.091H206.764C217.506 108.091 226.282 116.797 226.282 127.609C226.282 138.351 217.577 147.127 206.764 147.127H203.254C197.567 147.127 193.004 151.691 193.004 157.378V158.431C193.004 165.241 187.457 170.788 180.647 170.788V158.15C180.506 158.15 180.366 158.291 180.366 158.431V157.378C180.366 144.74 190.616 134.49 203.254 134.49H206.764C210.556 134.49 213.645 131.401 213.645 127.609C213.645 123.818 210.556 120.729 206.764 120.729H180.085V108.091Z" fill="#F1534D"/>
<path d="M181.77 149.444C185 140.738 193.425 134.42 203.254 134.42H206.764C210.556 134.42 213.645 131.331 213.645 127.539C213.645 123.748 210.556 120.659 206.764 120.659H180.085V108.021H206.764C217.506 108.021 226.282 116.727 226.282 127.539C226.282 138.281 217.577 147.057 206.764 147.057H203.254C197.567 147.057 193.004 151.621 193.004 157.308V158.361C193.004 165.171 187.457 170.718 180.647 170.718" stroke="black" stroke-width="4" stroke-miterlimit="10" stroke-linecap="round" stroke-linejoin="round"/>
<path d="M162.042 160.818C177.164 160.818 189.423 148.559 189.423 133.437C189.423 118.314 177.164 106.055 162.042 106.055C146.919 106.055 134.66 118.314 134.66 133.437C134.66 148.559 146.919 160.818 162.042 160.818Z" fill="#F46262"/>
<path d="M135.854 125.363C143.436 130.207 152.423 133.086 162.042 133.086C171.66 133.086 180.647 130.277 188.229 125.363C184.789 114.129 174.398 105.985 162.042 105.985C149.755 106.055 139.294 114.2 135.854 125.363Z" fill="#F1534D"/>
<path d="M162.042 160.818C177.164 160.818 189.423 148.559 189.423 133.437C189.423 118.314 177.164 106.055 162.042 106.055C146.919 106.055 134.66 118.314 134.66 133.437C134.66 148.559 146.919 160.818 162.042 160.818Z" stroke="black" stroke-width="4" stroke-miterlimit="10" stroke-linecap="round" stroke-linejoin="round"/>
<path d="M162.042 149.304C153.125 149.304 145.894 142.072 145.894 133.156V121.08C145.894 118.833 147.719 117.008 149.966 117.008H174.188C176.434 117.008 178.26 118.833 178.26 121.08V133.156C178.19 142.072 170.958 149.304 162.042 149.304Z" fill="#FFC897"/>
<path d="M174.188 117.008H149.966C147.719 117.008 145.894 118.974 145.894 121.361V131.26C150.949 133.156 156.355 134.209 162.042 134.209C167.728 134.209 173.135 133.156 178.19 131.26V121.361C178.19 118.974 176.364 117.008 174.188 117.008Z" fill="#E5A973"/>
<path d="M162.042 149.304C153.125 149.304 145.894 142.072 145.894 133.156V121.08C145.894 118.833 147.719 117.008 149.966 117.008H174.188C176.434 117.008 178.26 118.833 178.26 121.08V133.156C178.19 142.072 170.958 149.304 162.042 149.304Z" stroke="black" stroke-width="4" stroke-miterlimit="10" stroke-linecap="round" stroke-linejoin="round"/>
<path d="M179.524 331.214H164.499V379.167H179.524V331.214Z" fill="#607691"/>
<path d="M179.524 331.214H164.499V379.167H179.524V331.214Z" stroke="black" stroke-width="4" stroke-miterlimit="10" stroke-linecap="round" stroke-linejoin="round"/>
<path d="M90.85 299.48C90.2181 298.006 89.7267 296.532 89.3054 294.917C90.0777 296.461 90.5692 297.936 90.85 299.48Z" stroke="black" stroke-width="4" stroke-miterlimit="10" stroke-linecap="round" stroke-linejoin="round"/>
<path d="M237.656 299.34C237.937 297.865 238.429 296.461 239.06 295.127C238.709 296.602 238.218 298.006 237.656 299.34Z" stroke="black" stroke-width="4" stroke-miterlimit="10" stroke-linecap="round" stroke-linejoin="round"/>
<path d="M237.446 295.97H91.0606C85.8651 295.97 81.442 292.109 80.7399 286.913L71.6128 215.441C70.8405 209.262 75.6849 203.716 81.9335 203.716H246.573C252.821 203.716 257.666 209.192 256.893 215.441L247.766 286.913C247.064 292.038 242.641 295.97 237.446 295.97Z" fill="#B5B5B5"/>
<path opacity="0.21" d="M247.696 282.42C247.064 287.615 242.641 291.476 237.375 291.476H91.0606C85.8652 291.476 81.4421 287.615 80.74 282.42L71.7533 212C71.5426 213.124 71.4724 214.247 71.6129 215.44L80.74 286.913C81.3719 292.108 85.795 295.97 91.0606 295.97H237.446C242.641 295.97 247.064 292.108 247.766 286.913L256.893 215.44C257.034 214.247 256.964 213.124 256.753 212L247.696 282.42Z" fill="#7E7E7E"/>
<path opacity="0.21" d="M71.683 216.072C72.5255 211.298 76.738 207.507 81.8633 207.507H246.503C251.698 207.507 255.84 211.228 256.683 216.072L256.753 215.37C257.525 209.192 252.681 203.645 246.432 203.645H81.9335C75.6849 203.645 70.8405 209.122 71.6128 215.37L71.683 216.072Z" fill="#7E7E7E"/>
<path d="M237.446 295.97H91.0606C85.8651 295.97 81.442 292.109 80.7399 286.913L71.6128 215.441C70.8405 209.262 75.6849 203.716 81.9335 203.716H246.573C252.821 203.716 257.666 209.192 256.893 215.441L247.766 286.913C247.064 292.038 242.641 295.97 237.446 295.97Z" stroke="black" stroke-width="4" stroke-miterlimit="10" stroke-linecap="round" stroke-linejoin="round"/>
<path opacity="0.66" d="M171.169 245.49C168.009 245.49 165.482 242.962 165.482 239.803C165.482 239.592 165.482 239.382 165.552 239.171C164.99 239.101 164.429 239.031 163.867 239.031C158.742 239.031 154.529 243.243 154.529 248.368C154.529 253.494 158.742 257.706 163.867 257.706C168.992 257.706 173.205 253.494 173.205 248.368C173.205 247.315 172.994 246.262 172.713 245.279C172.222 245.349 171.73 245.49 171.169 245.49Z" fill="#B5B5B5"/>
<path d="M243.624 358.455C241.307 350.943 234.216 346.941 222.702 343.571C215.4 341.465 206.133 340.482 191.599 337.533C184.508 336.129 179.523 333.321 179.523 333.321V341.395C179.523 341.395 227.616 350.873 235.129 363.3C238.78 369.408 237.656 384.362 220.455 385.907C225.721 386.679 234.356 385.345 238.99 380.641C244.747 374.814 246.292 367.021 243.624 358.455Z" fill="#282323" stroke="black" stroke-width="4" stroke-miterlimit="10" stroke-linecap="round" stroke-linejoin="round"/>
<path d="M179.523 341.395C179.523 341.395 208.309 346.731 223.685 353.33C237.165 359.158 236.744 365.195 237.095 371.374C237.305 374.954 234.778 383.801 224.527 385.345C212.311 387.171 197.918 385.205 179.523 373.48C179.523 344.765 179.523 341.395 179.523 341.395Z" fill="#442C2A"/>
<path opacity="0.37" d="M237.095 371.374C236.814 366.389 237.024 361.474 230.004 356.7C230.284 358.455 230.355 360.14 230.425 361.896C230.635 365.476 228.108 374.323 217.857 375.867C207.186 377.482 194.759 376.148 179.523 367.934C179.523 369.689 179.523 371.514 179.523 373.41C197.918 385.135 212.311 387.03 224.527 385.275C234.848 383.801 237.305 374.884 237.095 371.374Z" fill="#442C2A"/>
<path d="M179.523 341.395C179.523 341.395 208.309 346.731 223.685 353.33C237.165 359.158 236.744 365.195 237.095 371.374C237.305 374.954 234.778 383.801 224.527 385.345C212.311 387.171 197.918 385.205 179.523 373.48C179.523 344.765 179.523 341.395 179.523 341.395Z" stroke="black" stroke-width="4" stroke-miterlimit="10" stroke-linecap="round" stroke-linejoin="round"/>
<path d="M206.203 357.894C208.52 359.157 207.958 371.444 202.341 373.129" stroke="black" stroke-width="4" stroke-miterlimit="10" stroke-linecap="round" stroke-linejoin="round"/>
<path d="M197.427 356.981C199.814 360.351 198.129 368.285 193.846 370.251" stroke="black" stroke-width="4" stroke-miterlimit="10" stroke-linecap="round" stroke-linejoin="round"/>
<path d="M189.353 354.173C191.74 357.543 190.055 365.476 185.772 367.442" stroke="black" stroke-width="4" stroke-miterlimit="10" stroke-linecap="round" stroke-linejoin="round"/>
<path d="M137.398 163.626V200.977" stroke="black" stroke-width="6" stroke-miterlimit="10" stroke-linecap="round" stroke-linejoin="round"/>
<path d="M184.789 163.626V189.955" stroke="black" stroke-width="6" stroke-miterlimit="10" stroke-linecap="round" stroke-linejoin="round"/>
<path d="M184.789 197.888C188.007 197.888 190.616 195.279 190.616 192.061C190.616 188.843 188.007 186.234 184.789 186.234C181.571 186.234 178.962 188.843 178.962 192.061C178.962 195.279 181.571 197.888 184.789 197.888Z" fill="black"/>
<path d="M184.789 193.746C186.108 193.746 187.176 192.677 187.176 191.359C187.176 190.04 186.108 188.972 184.789 188.972C183.471 188.972 182.402 190.04 182.402 191.359C182.402 192.677 183.471 193.746 184.789 193.746Z" fill="#7E7E7E"/>
<path d="M162.042 128.873C137.609 128.873 117.74 109.074 117.74 84.5714V33.1787H206.343V84.5714C206.343 109.004 186.544 128.873 162.042 128.873Z" fill="#FFC897"/>
<path d="M162.042 122.765C137.609 122.765 117.74 102.966 117.74 78.4633V84.5714C117.74 109.004 137.539 128.873 162.042 128.873C186.474 128.873 206.343 109.074 206.343 84.5714V78.4633C206.343 102.896 186.544 122.765 162.042 122.765Z" fill="#E5A973"/>
<path d="M162.042 128.873C137.609 128.873 117.74 109.074 117.74 84.5714V33.1787H206.343V84.5714C206.343 109.004 186.544 128.873 162.042 128.873Z" stroke="black" stroke-width="4" stroke-miterlimit="10" stroke-linecap="round" stroke-linejoin="round"/>
<path d="M206.694 38.304C206.554 35.9169 206.413 33.4596 206.343 31.0725C176.856 32.4767 147.227 32.2661 117.81 29.6683C117.599 32.4065 117.459 35.1446 117.248 37.8828C118.582 39.0763 119.987 40.34 121.321 41.5336C122.444 42.0953 123.918 42.8676 125.252 43.5697C131.15 46.6588 139.364 50.5905 147.227 52.1351C150.106 52.6968 153.125 52.9776 156.214 52.9074C169.484 52.767 180.647 47.5013 185.351 45.3249C186.053 44.9738 186.615 44.693 186.966 44.6228C187.246 44.4824 187.527 44.4122 187.949 44.4122C188.791 44.4122 189.774 44.6228 190.967 44.8334C192.512 45.1845 194.337 45.5355 196.374 45.3951C198.69 45.2547 200.797 44.5526 202.833 43.2186C204.026 41.5336 205.36 39.9188 206.694 38.304Z" fill="#E5A973"/>
<path d="M185.351 11.6247C185.351 11.6247 149.895 -11.7547 120.548 14.3629C115.072 19.2073 112.896 26.1579 112.896 32.5469V66.3875H117.81V41.8145C117.81 39.989 119.074 38.5849 120.618 38.5849C123.146 38.5849 136.837 45.8865 148.421 47.9226C165.903 50.9416 181.84 42.8676 185.281 41.674C191.178 39.5678 195.952 46.8695 203.394 38.6551H203.675C205.22 38.6551 206.484 40.1294 206.484 41.8846V66.4577H211.398V32.7575C211.258 24.4729 201.709 3.69115 185.351 11.6247Z" fill="#231A17"/>
<g opacity="0.34">
<path opacity="0.34" d="M117.74 61.7538H112.825V66.3876H117.74V61.7538Z" fill="#231A17"/>
<path opacity="0.34" d="M211.258 61.7538H206.343V66.3876H211.258V61.7538Z" fill="#231A17"/>
</g>
<path d="M185.351 11.6247C185.351 11.6247 149.895 -11.7547 120.548 14.3629C115.072 19.2073 112.896 26.1579 112.896 32.5469V66.3875H117.81V41.8145C117.81 39.989 119.074 38.5849 120.618 38.5849C123.146 38.5849 136.837 45.8865 148.421 47.9226C165.903 50.9416 181.84 42.8676 185.281 41.674C191.178 39.5678 195.952 46.8695 203.394 38.6551H203.675C205.22 38.6551 206.484 40.1294 206.484 41.8846V66.4577H211.398V32.7575C211.258 24.4729 201.709 3.69115 185.351 11.6247Z" stroke="black" stroke-width="4" stroke-miterlimit="10" stroke-linecap="round" stroke-linejoin="round"/>
<path d="M155.372 34.4425C155.372 34.4425 117.319 36.8998 109.245 16.6797" stroke="black" stroke-width="4" stroke-miterlimit="10" stroke-linecap="round" stroke-linejoin="round"/>
<path d="M160.778 29.5981C160.778 29.5981 124.129 27.2812 114.58 7.06116" stroke="black" stroke-width="4" stroke-miterlimit="10" stroke-linecap="round" stroke-linejoin="round"/>
<path d="M206.343 60.9111V83.9396C211.258 83.9396 215.189 78.8143 215.189 72.4253C215.189 66.0364 211.258 60.9111 206.343 60.9111Z" fill="#FFC897"/>
<path d="M206.343 62.1749V82.6056C209.222 80.71 211.188 76.8485 211.188 72.3552C211.188 67.932 209.222 64.0706 206.343 62.1749Z" fill="#E5A973"/>
<path d="M206.343 60.9111V83.9396C211.258 83.9396 215.189 78.8143 215.189 72.4253C215.189 66.0364 211.258 60.9111 206.343 60.9111Z" stroke="black" stroke-width="4" stroke-miterlimit="10" stroke-linecap="round" stroke-linejoin="round"/>
<path d="M117.81 60.9111V83.9396C112.895 83.9396 108.964 78.8143 108.964 72.4253C108.894 66.0364 112.895 60.9111 117.81 60.9111Z" fill="#FFC897"/>
<path d="M117.81 62.5962C115.283 64.6322 113.527 68.2831 113.527 72.4254C113.527 76.5677 115.212 80.2186 117.81 82.2546V62.5962Z" fill="#E5A973"/>
<path d="M117.81 60.9111V83.9396C112.895 83.9396 108.964 78.8143 108.964 72.4253C108.894 66.0364 112.895 60.9111 117.81 60.9111Z" stroke="black" stroke-width="4" stroke-miterlimit="10" stroke-linecap="round" stroke-linejoin="round"/>
<path d="M160.216 79.657L157.267 89.2756C157.267 90.3287 160.708 89.4862 164.218 90.3287" stroke="black" stroke-width="4" stroke-miterlimit="10" stroke-linecap="round" stroke-linejoin="round"/>
<path d="M176.785 97.6302C177.839 104.932 168.431 111.391 161.059 110.057" stroke="black" stroke-width="3" stroke-miterlimit="10" stroke-linecap="round" stroke-linejoin="round"/>
<path d="M146.104 71.5127C147.733 71.5127 149.053 70.0982 149.053 68.3534C149.053 66.6085 147.733 65.194 146.104 65.194C144.476 65.194 143.156 66.6085 143.156 68.3534C143.156 70.0982 144.476 71.5127 146.104 71.5127Z" stroke="black" stroke-width="2" stroke-miterlimit="10" stroke-linecap="round" stroke-linejoin="round"/>
<path d="M146.104 71.5127C147.733 71.5127 149.053 70.0982 149.053 68.3534C149.053 66.6085 147.733 65.194 146.104 65.194C144.476 65.194 143.156 66.6085 143.156 68.3534C143.156 70.0982 144.476 71.5127 146.104 71.5127Z" fill="black"/>
<path d="M135.924 61.6834C137.398 59.9282 140.839 58.7346 144.911 58.7346C148.14 58.7346 150.949 59.5069 152.704 60.7005" stroke="black" stroke-width="3" stroke-miterlimit="10" stroke-linecap="round" stroke-linejoin="round"/>
<path d="M178.4 71.5127C180.029 71.5127 181.349 70.0982 181.349 68.3534C181.349 66.6085 180.029 65.194 178.4 65.194C176.772 65.194 175.451 66.6085 175.451 68.3534C175.451 70.0982 176.772 71.5127 178.4 71.5127Z" stroke="black" stroke-width="2" stroke-miterlimit="10" stroke-linecap="round" stroke-linejoin="round"/>
<path d="M178.4 71.5127C180.029 71.5127 181.349 70.0982 181.349 68.3534C181.349 66.6085 180.029 65.194 178.4 65.194C176.772 65.194 175.451 66.6085 175.451 68.3534C175.451 70.0982 176.772 71.5127 178.4 71.5127Z" fill="black"/>
<path d="M188.581 61.6834C187.106 59.9282 183.666 58.7346 179.594 58.7346C176.364 58.7346 173.556 59.5069 171.801 60.7005" stroke="black" stroke-width="3" stroke-miterlimit="10" stroke-linecap="round" stroke-linejoin="round"/>
</svg>
