<svg width="49" height="35" viewBox="0 0 49 35" fill="none" xmlns="http://www.w3.org/2000/svg">
<path d="M30.4415 23.5258C31.5535 24.0605 32.0333 25.4059 31.3575 26.4383C29.6277 29.0814 27.1869 31.204 24.2962 32.5485C20.7268 34.2087 16.6921 34.5799 12.8797 33.5988C9.06723 32.6178 5.71291 30.3451 3.38824 27.1682C1.06357 23.9912 -0.087611 20.1065 0.130837 16.1759C0.349285 12.2454 1.92385 8.51212 4.58624 5.61233C7.24864 2.71253 10.8341 0.825598 14.7318 0.273031C18.6295 -0.279537 22.5981 0.536454 25.9616 2.58197C28.6856 4.23856 30.8761 6.61855 32.3024 9.437C32.8596 10.538 32.2337 11.8219 31.0693 12.2301C29.9048 12.6383 28.6464 12.0112 28.0384 10.9375C26.9894 9.08503 25.4796 7.51863 23.6398 6.39975C21.1596 4.8914 18.2331 4.28969 15.359 4.69715C12.4849 5.10461 9.84094 6.49603 7.87771 8.63433C5.91447 10.7726 4.75339 13.5255 4.59231 16.4239C4.43123 19.3223 5.2801 22.1869 6.99431 24.5295C8.70851 26.8722 11.182 28.548 13.9932 29.2715C16.8045 29.9949 19.7797 29.7212 22.4117 28.497C24.3642 27.5888 26.0383 26.1994 27.2861 24.4746C28.0093 23.4749 29.3295 22.9911 30.4415 23.5258Z" fill="#292423"/>
<rect x="10.8998" y="15" width="37.6" height="4" rx="2" fill="#292423"/>
</svg>
